<?xml version="1.0" encoding="UTF-8" standalone="no"?>
<!-- Created with Inkscape (http://www.inkscape.org/) -->

<svg xmlns:dc="http://purl.org/dc/elements/1.1/" xmlns:cc="http://creativecommons.org/ns#" xmlns:rdf="http://www.w3.org/1999/02/22-rdf-syntax-ns#" xmlns:svg="http://www.w3.org/2000/svg" xmlns="http://www.w3.org/2000/svg" xmlns:sodipodi="http://sodipodi.sourceforge.net/DTD/sodipodi-0.dtd" xmlns:inkscape="http://www.inkscape.org/namespaces/inkscape" width="764.57086" height="441.28159" id="svg2" version="1.1" inkscape:version="0.48.4 r9939" sodipodi:docname="wirehanger.svg">
   <defs id="defs4">
      <style id="style3170" type="text/css">
    .fil0 {fill:black;fill-rule:nonzero}
</style>
   </defs>
   <sodipodi:namedview id="base" pagecolor="#ffffff" bordercolor="#666666" borderopacity="1.0" inkscape:pageopacity="0.0" inkscape:pageshadow="2" inkscape:zoom="0.27647638" inkscape:cx="898.41781" inkscape:cy="130.31572" inkscape:document-units="px" inkscape:current-layer="layer1" showgrid="false" inkscape:window-width="1280" inkscape:window-height="749" inkscape:window-x="0" inkscape:window-y="26" inkscape:window-maximized="1" fit-margin-top="0" fit-margin-left="0" fit-margin-right="0" fit-margin-bottom="0" />
   <metadata id="metadata7">
      <rdf:RDF>
         <cc:Work rdf:about="">
            <dc:format>image/svg+xml</dc:format>
            <dc:type rdf:resource="http://purl.org/dc/dcmitype/StillImage" />
            <dc:title></dc:title>
         </cc:Work>
      </rdf:RDF>
   </metadata>
   <g inkscape:label="Layer 1" inkscape:groupmode="layer" id="layer1" transform="translate(100.92144,19.24472)">
      <path style="fill:none;stroke:#ff0000;stroke-width:6;stroke-linecap:butt;stroke-linejoin:miter;stroke-opacity:1" d="m 237.9414,55.796788 c 11.0558,-23.90003 18.919,-35.16178 33.2287,-37.07921 14.3097,-1.91743 30.8882,6.25799 37.6074,20.61841 6.7192,14.36043 -0.3275,34.91644 -12.6074,52.023098 -8.5935,11.971274 -12.7358,32.547174 -15.0943,41.981134 -2.3585,9.43397 -3.7736,23.58491 -3.7736,38.67925 0,15.09434 -0.4717,28.30189 -14.151,32.54717 -13.6792,4.24528 -19.5754,2.59434 -40.8018,11.79245 -54.9918,29.77335 -117.2116,58.57713 -162.451738,82.01808 -18.01121,9.33915 -30.01989,17.56594 -40.692,29.68514 -14.3452704,16.29043 -23.2337304,23.35279 -35.35534,14.00872 -7.77047,-5.98994 -23.88873,-0.59528 -30.93825,12.27652 -11.71152,21.38422 -6.91131,28.60921 -3.45968,28.85452 27.87246,1.98093 276.434708,-4.10713 317.000708,-5.05052 40.5661,-0.9434 325.1354,6.42121 344.0259,6.21301 5.1927,-0.0572 8.9663,-2.49665 5.1927,-12.87401 -3.7736,-10.37736 -15.1803,-36.26493 -31.9611,-27.18681 -21.0696,11.39824 -32.9851,-2.52896 -39.5465,-14.89552 -9.6789,-18.24211 -13.2273,-14.79691 -48.4656,-35.21894 -35.7748,-20.73292 -139.8413,-72.33654 -179.0095,-85.14151 -24.5283,-8.01887 -30.0224,-6.25655 -29.0095,-17.68868 1.651,-18.63208 -2.5901,-23.39228 -6.7714,-27.35065 -4.9276,-4.66478 -12.0439,-5.19613 -5.9697,-7.75369 6.0742,-2.55757 11.1893,-3.67651 6.0742,-7.03331 -5.1151,-3.35681 -10.0704,-9.75072 -3.3568,-11.18936 6.7136,-1.43863 11.1894,0 6.0742,-5.27498 -5.1151,-5.27498 -5.4348,-6.39391 -4.4757,-13.10753 0.9591,-6.71361 0.9591,-6.71361 0.9591,-6.71361" id="path3186" inkscape:connector-curvature="0" sodipodi:nodetypes="czzssssccssssssssssssssssssc" />
   </g>
</svg>
